# xmcd CD database file
#
# Track frame offsets:
#	150
#	16215
#	47817
#	64795
#	90690
#	117353
#	135744
#	143784
#	168419
#	184580
#	193700
#
# Disc length: 3127 seconds
#
# Revision: 0
# Processed by: cddbd v1.4PL0 Copyright (c) Steve Scherf et al.
# Submitted via: CDex 1.50beta8
#
DISCID=970c350b
DTITLE=Stéphane Bertrand - Clandestin
DYEAR=2000
DGENRE=Jazz
TTITLE0=clandestin part 1
TTITLE1=clandestin part 2
TTITLE2=les hommes au drapeau noir
TTITLE3=léo
TTITLE4=lady death part 2
TTITLE5=ailleurs peut-être?
TTITLE6=neuroleptica
TTITLE7=les années poil de carotte
TTITLE8=étranger
TTITLE9=dans la tourmente
TTITLE10=le temps des adieux
EXTD=YEAR: 2000
EXTT0=
EXTT1=
EXTT2=
EXTT3=
EXTT4=
EXTT5=
EXTT6=
EXTT7=
EXTT8=
EXTT9=
EXTT10=
PLAYORDER=
